<svg width="178" height="14" viewBox="0 0 178 14" fill="none" xmlns="http://www.w3.org/2000/svg">
<path d="M2.01599 10.598V1.79202H-5.84498e-06V0.168022H3.91999V10.598H2.01599ZM9.66448 10.766C8.90848 10.766 8.25048 10.626 7.69048 10.346C7.13981 10.0567 6.71048 9.66936 6.40248 9.18402C6.10381 8.69869 5.95448 8.16669 5.95448 7.58802C5.95448 6.90669 6.13648 6.33269 6.50048 5.86602C6.86448 5.39002 7.39181 5.04002 8.08248 4.81602L7.97048 5.27802C7.47581 5.11936 7.08381 4.81136 6.79448 4.35402C6.51448 3.89669 6.37448 3.39269 6.37448 2.84202C6.37448 2.29136 6.51448 1.80136 6.79448 1.37202C7.07448 0.942689 7.46181 0.606689 7.95648 0.364022C8.45115 0.121355 9.02048 2.20537e-05 9.66448 2.20537e-05C10.2991 2.20537e-05 10.8591 0.121355 11.3445 0.364022C11.8391 0.606689 12.2265 0.942689 12.5065 1.37202C12.7958 1.80136 12.9405 2.29136 12.9405 2.84202C12.9405 3.40202 12.7958 3.91069 12.5065 4.36802C12.2265 4.81602 11.8391 5.12402 11.3445 5.29202L11.2465 4.80202C11.9371 5.04469 12.4645 5.40402 12.8285 5.88002C13.1925 6.34669 13.3745 6.92069 13.3745 7.60202C13.3745 8.18069 13.2205 8.71269 12.9125 9.19802C12.6138 9.67402 12.1845 10.0567 11.6245 10.346C11.0738 10.626 10.4205 10.766 9.66448 10.766ZM9.66448 9.15602C10.0285 9.15602 10.3458 9.09069 10.6165 8.96002C10.8871 8.82002 11.0971 8.62869 11.2465 8.38602C11.3958 8.13402 11.4705 7.84936 11.4705 7.53202C11.4705 7.20536 11.3958 6.92536 11.2465 6.69202C11.0971 6.44936 10.8871 6.26269 10.6165 6.13202C10.3458 5.99202 10.0285 5.92202 9.66448 5.92202C9.30048 5.92202 8.98315 5.99202 8.71248 6.13202C8.45115 6.26269 8.24581 6.44936 8.09648 6.69202C7.94715 6.92536 7.87248 7.20536 7.87248 7.53202C7.87248 7.84936 7.94715 8.13402 8.09648 8.38602C8.24581 8.62869 8.45115 8.82002 8.71248 8.96002C8.98315 9.09069 9.30048 9.15602 9.66448 9.15602ZM9.66448 4.31202C9.93515 4.31202 10.1731 4.25136 10.3785 4.13002C10.5838 4.00869 10.7425 3.85002 10.8545 3.65402C10.9758 3.44869 11.0365 3.21536 11.0365 2.95402C11.0365 2.69269 10.9758 2.46402 10.8545 2.26802C10.7425 2.06269 10.5838 1.90402 10.3785 1.79202C10.1731 1.67069 9.93515 1.61002 9.66448 1.61002C9.39381 1.61002 9.15115 1.67069 8.93648 1.79202C8.73115 1.90402 8.56781 2.06269 8.44648 2.26802C8.33448 2.46402 8.27848 2.69269 8.27848 2.95402C8.27848 3.21536 8.33448 3.44869 8.44648 3.65402C8.56781 3.85002 8.73115 4.00869 8.93648 4.13002C9.15115 4.25136 9.39381 4.31202 9.66448 4.31202ZM14.7302 10.598V9.15602L17.5582 6.20202C18.1182 5.61402 18.5475 5.14736 18.8462 4.80202C19.1542 4.44736 19.3688 4.14402 19.4902 3.89202C19.6115 3.64002 19.6722 3.38336 19.6722 3.12202C19.6722 2.68336 19.5322 2.33802 19.2522 2.08602C18.9815 1.83402 18.6315 1.70802 18.2022 1.70802C17.7542 1.70802 17.3668 1.83869 17.0402 2.10002C16.7135 2.35202 16.4755 2.72536 16.3262 3.22002L14.6602 2.70202C14.7722 2.15136 15.0008 1.67536 15.3462 1.27402C15.6915 0.863355 16.1115 0.550689 16.6062 0.336022C17.1102 0.112022 17.6422 2.20537e-05 18.2022 2.20537e-05C18.8742 2.20537e-05 19.4622 0.121355 19.9662 0.364022C20.4795 0.606689 20.8762 0.947355 21.1562 1.38602C21.4455 1.82469 21.5902 2.33802 21.5902 2.92602C21.5902 3.29936 21.5202 3.66802 21.3802 4.03202C21.2402 4.39602 21.0302 4.76936 20.7502 5.15202C20.4702 5.52536 20.1062 5.94536 19.6582 6.41202L17.2082 8.98802H21.7302V10.598H14.7302ZM26.8637 10.766C26.1077 10.766 25.4497 10.626 24.8897 10.346C24.339 10.0567 23.9097 9.66936 23.6017 9.18402C23.303 8.69869 23.1537 8.16669 23.1537 7.58802C23.1537 6.90669 23.3357 6.33269 23.6997 5.86602C24.0637 5.39002 24.591 5.04002 25.2817 4.81602L25.1697 5.27802C24.675 5.11936 24.283 4.81136 23.9937 4.35402C23.7137 3.89669 23.5737 3.39269 23.5737 2.84202C23.5737 2.29136 23.7137 1.80136 23.9937 1.37202C24.2737 0.942689 24.661 0.606689 25.1557 0.364022C25.6504 0.121355 26.2197 2.20537e-05 26.8637 2.20537e-05C27.4984 2.20537e-05 28.0584 0.121355 28.5437 0.364022C29.0384 0.606689 29.4257 0.942689 29.7057 1.37202C29.995 1.80136 30.1397 2.29136 30.1397 2.84202C30.1397 3.40202 29.995 3.91069 29.7057 4.36802C29.4257 4.81602 29.0384 5.12402 28.5437 5.29202L28.4457 4.80202C29.1364 5.04469 29.6637 5.40402 30.0277 5.88002C30.3917 6.34669 30.5737 6.92069 30.5737 7.60202C30.5737 8.18069 30.4197 8.71269 30.1117 9.19802C29.813 9.67402 29.3837 10.0567 28.8237 10.346C28.273 10.626 27.6197 10.766 26.8637 10.766ZM26.8637 9.15602C27.2277 9.15602 27.545 9.09069 27.8157 8.96002C28.0864 8.82002 28.2964 8.62869 28.4457 8.38602C28.595 8.13402 28.6697 7.84936 28.6697 7.53202C28.6697 7.20536 28.595 6.92536 28.4457 6.69202C28.2964 6.44936 28.0864 6.26269 27.8157 6.13202C27.545 5.99202 27.2277 5.92202 26.8637 5.92202C26.4997 5.92202 26.1824 5.99202 25.9117 6.13202C25.6504 6.26269 25.445 6.44936 25.2957 6.69202C25.1464 6.92536 25.0717 7.20536 25.0717 7.53202C25.0717 7.84936 25.1464 8.13402 25.2957 8.38602C25.445 8.62869 25.6504 8.82002 25.9117 8.96002C26.1824 9.09069 26.4997 9.15602 26.8637 9.15602ZM26.8637 4.31202C27.1344 4.31202 27.3724 4.25136 27.5777 4.13002C27.783 4.00869 27.9417 3.85002 28.0537 3.65402C28.175 3.44869 28.2357 3.21536 28.2357 2.95402C28.2357 2.69269 28.175 2.46402 28.0537 2.26802C27.9417 2.06269 27.783 1.90402 27.5777 1.79202C27.3724 1.67069 27.1344 1.61002 26.8637 1.61002C26.593 1.61002 26.3504 1.67069 26.1357 1.79202C25.9304 1.90402 25.767 2.06269 25.6457 2.26802C25.5337 2.46402 25.4777 2.69269 25.4777 2.95402C25.4777 3.21536 25.5337 3.44869 25.6457 3.65402C25.767 3.85002 25.9304 4.00869 26.1357 4.13002C26.3504 4.25136 26.593 4.31202 26.8637 4.31202ZM33.7074 10.598V1.79202H31.6914V0.168022H35.6114V10.598H33.7074Z" fill="#0CBBC7"/>
<path d="M45.3717 10.766C44.653 10.766 44.023 10.584 43.4817 10.22C42.9404 9.85602 42.5484 9.36136 42.3057 8.73602L43.1877 8.31602C43.4024 8.77336 43.701 9.13736 44.0837 9.40802C44.4757 9.67869 44.905 9.81402 45.3717 9.81402C45.8197 9.81402 46.1977 9.70669 46.5057 9.49202C46.8137 9.26802 46.9677 8.97869 46.9677 8.62402C46.9677 8.36269 46.893 8.15736 46.7437 8.00802C46.5944 7.84936 46.4217 7.72802 46.2257 7.64402C46.0297 7.56002 45.857 7.49936 45.7077 7.46202L44.6297 7.15402C43.939 6.95802 43.4397 6.68269 43.1317 6.32802C42.8237 5.97336 42.6697 5.56269 42.6697 5.09602C42.6697 4.65736 42.7817 4.27469 43.0057 3.94802C43.2297 3.62136 43.533 3.36936 43.9157 3.19202C44.2984 3.01469 44.723 2.92602 45.1897 2.92602C45.8244 2.92602 46.3984 3.09402 46.9117 3.43002C47.4344 3.75669 47.803 4.21402 48.0177 4.80202L47.1217 5.22202C46.935 4.80202 46.6644 4.47536 46.3097 4.24202C45.9644 3.99936 45.577 3.87802 45.1477 3.87802C44.7277 3.87802 44.3917 3.98536 44.1397 4.20002C43.8877 4.41469 43.7617 4.68536 43.7617 5.01202C43.7617 5.26402 43.827 5.46469 43.9577 5.61402C44.0884 5.76336 44.2377 5.87536 44.4057 5.95002C44.583 6.02469 44.737 6.08069 44.8677 6.11802L46.1137 6.48202C46.7204 6.65936 47.1917 6.93469 47.5277 7.30802C47.873 7.68136 48.0457 8.12002 48.0457 8.62402C48.0457 9.03469 47.929 9.40336 47.6957 9.73002C47.4717 10.0567 47.159 10.3134 46.7577 10.5C46.3564 10.6774 45.8944 10.766 45.3717 10.766ZM49.8907 10.598V3.09402H50.9407V10.598H49.8907ZM49.8907 1.70802V0.168022H50.9407V1.70802H49.8907ZM56.646 13.678C56.1326 13.678 55.6566 13.5987 55.218 13.44C54.7886 13.2814 54.4153 13.062 54.098 12.782C53.79 12.5114 53.552 12.194 53.384 11.83L54.35 11.312C54.4993 11.6667 54.7653 11.9747 55.148 12.236C55.5306 12.4974 56.0206 12.628 56.618 12.628C57.0753 12.628 57.4953 12.5394 57.878 12.362C58.2606 12.1847 58.5686 11.9234 58.802 11.578C59.0353 11.2327 59.152 10.808 59.152 10.304V8.63802L59.32 8.79202C59.0586 9.33336 58.6713 9.75336 58.158 10.052C57.6446 10.3414 57.0846 10.486 56.478 10.486C55.778 10.486 55.148 10.318 54.588 9.98202C54.028 9.64602 53.5846 9.19336 53.258 8.62402C52.9406 8.04536 52.782 7.40602 52.782 6.70602C52.782 5.99669 52.9406 5.35736 53.258 4.78802C53.5846 4.21869 54.0233 3.76602 54.574 3.43002C55.134 3.09402 55.7686 2.92602 56.478 2.92602C57.0846 2.92602 57.6353 3.06602 58.13 3.34602C58.634 3.62602 59.0306 4.00402 59.32 4.48002L59.152 4.77402V3.09402H60.202V10.304C60.202 10.948 60.048 11.522 59.74 12.026C59.4413 12.5394 59.0213 12.9407 58.48 13.23C57.948 13.5287 57.3366 13.678 56.646 13.678ZM56.534 9.43602C57.0193 9.43602 57.458 9.31469 57.85 9.07202C58.242 8.82002 58.5546 8.48869 58.788 8.07802C59.0306 7.65802 59.152 7.20069 59.152 6.70602C59.152 6.21136 59.0306 5.75869 58.788 5.34802C58.5546 4.92802 58.242 4.59669 57.85 4.35402C57.458 4.10202 57.0193 3.97602 56.534 3.97602C56.0393 3.97602 55.5913 4.10202 55.19 4.35402C54.7886 4.59669 54.4713 4.92336 54.238 5.33402C54.014 5.74469 53.902 6.20202 53.902 6.70602C53.902 7.20069 54.014 7.65802 54.238 8.07802C54.4713 8.48869 54.784 8.82002 55.176 9.07202C55.5773 9.31469 56.03 9.43602 56.534 9.43602ZM62.3595 10.598V3.09402H63.4095V4.55002L63.1715 4.49402C63.3582 4.00869 63.6615 3.62602 64.0815 3.34602C64.5108 3.06602 65.0055 2.92602 65.5655 2.92602C66.0975 2.92602 66.5735 3.04736 66.9935 3.29002C67.4228 3.53269 67.7588 3.86869 68.0015 4.29802C68.2535 4.71802 68.3795 5.19402 68.3795 5.72602V10.598H67.3295V6.13202C67.3295 5.67469 67.2455 5.28736 67.0775 4.97002C66.9188 4.65269 66.6902 4.41002 66.3915 4.24202C66.1022 4.06469 65.7662 3.97602 65.3835 3.97602C65.0008 3.97602 64.6602 4.06469 64.3615 4.24202C64.0628 4.41002 63.8295 4.65736 63.6615 4.98402C63.4935 5.30136 63.4095 5.68402 63.4095 6.13202V10.598H62.3595ZM73.8009 10.766C73.1009 10.766 72.4662 10.598 71.8969 10.262C71.3369 9.91669 70.8936 9.44536 70.5669 8.84802C70.2402 8.25069 70.0769 7.57402 70.0769 6.81802C70.0769 6.06202 70.2356 5.39469 70.5529 4.81602C70.8702 4.22802 71.2996 3.76602 71.8409 3.43002C72.3916 3.09402 73.0076 2.92602 73.6889 2.92602C74.2302 2.92602 74.7109 3.02869 75.1309 3.23402C75.5602 3.43002 75.9242 3.70069 76.2229 4.04602C76.5216 4.38202 76.7502 4.76469 76.9089 5.19402C77.0676 5.61402 77.1469 6.04802 77.1469 6.49602C77.1469 6.58936 77.1422 6.69669 77.1329 6.81802C77.1236 6.93002 77.1096 7.04669 77.0909 7.16802H70.7489V6.18802H76.4889L75.9849 6.60802C76.0689 6.09469 76.0082 5.63736 75.8029 5.23602C75.6069 4.82536 75.3222 4.50336 74.9489 4.27002C74.5756 4.02736 74.1556 3.90602 73.6889 3.90602C73.2222 3.90602 72.7882 4.02736 72.3869 4.27002C71.9949 4.51269 71.6869 4.85336 71.4629 5.29202C71.2389 5.72136 71.1502 6.23469 71.1969 6.83202C71.1502 7.42936 71.2436 7.95202 71.4769 8.40002C71.7196 8.83869 72.0462 9.17936 72.4569 9.42202C72.8769 9.66469 73.3249 9.78602 73.8009 9.78602C74.3516 9.78602 74.8136 9.65536 75.1869 9.39402C75.5602 9.13269 75.8636 8.80602 76.0969 8.41402L76.9929 8.89002C76.8436 9.22602 76.6149 9.53869 76.3069 9.82802C75.9989 10.108 75.6302 10.3367 75.2009 10.514C74.7809 10.682 74.3142 10.766 73.8009 10.766ZM82.3862 10.766C81.6862 10.766 81.0562 10.598 80.4962 10.262C79.9362 9.91669 79.4928 9.45002 79.1662 8.86202C78.8488 8.26469 78.6902 7.59269 78.6902 6.84602C78.6902 6.09002 78.8488 5.41802 79.1662 4.83002C79.4928 4.24202 79.9315 3.78002 80.4822 3.44402C81.0422 3.09869 81.6768 2.92602 82.3862 2.92602C83.0302 2.92602 83.6042 3.06602 84.1082 3.34602C84.6122 3.62602 85.0088 4.00402 85.2982 4.48002L85.1302 4.77402V2.20537e-05H86.1802V10.598H85.1302V8.91802L85.2982 9.07202C85.0368 9.61336 84.6448 10.0334 84.1222 10.332C83.6088 10.6214 83.0302 10.766 82.3862 10.766ZM82.4422 9.71602C82.9462 9.71602 83.3988 9.59002 83.8002 9.33802C84.2108 9.08602 84.5328 8.74536 84.7662 8.31602C85.0088 7.87736 85.1302 7.38736 85.1302 6.84602C85.1302 6.30469 85.0088 5.81936 84.7662 5.39002C84.5328 4.95136 84.2108 4.60602 83.8002 4.35402C83.3988 4.10202 82.9462 3.97602 82.4422 3.97602C81.9475 3.97602 81.4995 4.10202 81.0982 4.35402C80.6968 4.60602 80.3795 4.94669 80.1462 5.37602C79.9222 5.80536 79.8102 6.29536 79.8102 6.84602C79.8102 7.38736 79.9222 7.87736 80.1462 8.31602C80.3795 8.74536 80.6922 9.08602 81.0842 9.33802C81.4855 9.59002 81.9382 9.71602 82.4422 9.71602ZM93.375 10.766C92.8523 10.766 92.3763 10.6447 91.947 10.402C91.5176 10.15 91.177 9.80469 90.925 9.36602C90.6823 8.91802 90.561 8.40469 90.561 7.82602V3.09402H91.611V7.70002C91.611 8.10136 91.6903 8.45602 91.849 8.76402C92.017 9.06269 92.2456 9.29602 92.535 9.46402C92.8336 9.63202 93.1743 9.71602 93.557 9.71602C93.9396 9.71602 94.2803 9.63202 94.579 9.46402C94.8776 9.28669 95.111 9.03936 95.279 8.72202C95.447 8.39536 95.531 8.00802 95.531 7.56002V3.09402H96.581V10.598H95.531V9.14202L95.769 9.19802C95.5916 9.68336 95.2883 10.066 94.859 10.346C94.4296 10.626 93.935 10.766 93.375 10.766ZM98.7404 13.398V3.09402H99.7904V4.77402L99.6224 4.48002C99.921 4.00402 100.318 3.62602 100.812 3.34602C101.316 3.06602 101.89 2.92602 102.534 2.92602C103.244 2.92602 103.874 3.09869 104.424 3.44402C104.984 3.78002 105.423 4.24202 105.74 4.83002C106.067 5.41802 106.23 6.09002 106.23 6.84602C106.23 7.59269 106.067 8.26469 105.74 8.86202C105.423 9.45002 104.984 9.91669 104.424 10.262C103.874 10.598 103.244 10.766 102.534 10.766C101.89 10.766 101.307 10.6214 100.784 10.332C100.271 10.0334 99.8837 9.61336 99.6224 9.07202L99.7904 8.91802V13.398H98.7404ZM102.478 9.71602C102.982 9.71602 103.43 9.59002 103.822 9.33802C104.224 9.08602 104.536 8.74536 104.76 8.31602C104.994 7.87736 105.11 7.38736 105.11 6.84602C105.11 6.29536 104.994 5.80536 104.76 5.37602C104.536 4.94669 104.224 4.60602 103.822 4.35402C103.43 4.10202 102.982 3.97602 102.478 3.97602C101.974 3.97602 101.517 4.10202 101.106 4.35402C100.705 4.60602 100.383 4.95136 100.14 5.39002C99.907 5.81936 99.7904 6.30469 99.7904 6.84602C99.7904 7.38736 99.907 7.87736 100.14 8.31602C100.383 8.74536 100.705 9.08602 101.106 9.33802C101.517 9.59002 101.974 9.71602 102.478 9.71602ZM110.457 10.598V2.20537e-05H111.507V10.598H110.457ZM115.826 10.766C115.35 10.766 114.926 10.6774 114.552 10.5C114.179 10.3134 113.885 10.0614 113.67 9.74402C113.456 9.42669 113.348 9.06269 113.348 8.65202C113.348 8.26002 113.432 7.90536 113.6 7.58802C113.768 7.26136 114.03 6.98602 114.384 6.76202C114.739 6.53802 115.192 6.37936 115.742 6.28602L118.682 5.79602V6.74802L115.994 7.19602C115.453 7.28936 115.061 7.46202 114.818 7.71402C114.585 7.96602 114.468 8.26469 114.468 8.61002C114.468 8.94602 114.599 9.23069 114.86 9.46402C115.131 9.69736 115.476 9.81402 115.896 9.81402C116.41 9.81402 116.858 9.70669 117.24 9.49202C117.623 9.26802 117.922 8.96936 118.136 8.59602C118.351 8.22269 118.458 7.80736 118.458 7.35002V5.44602C118.458 4.99802 118.295 4.63402 117.968 4.35402C117.642 4.07402 117.217 3.93402 116.694 3.93402C116.237 3.93402 115.836 4.05069 115.49 4.28402C115.145 4.50802 114.888 4.80202 114.72 5.16602L113.768 4.64802C113.908 4.33069 114.128 4.04136 114.426 3.78002C114.734 3.51869 115.084 3.31336 115.476 3.16402C115.868 3.00536 116.274 2.92602 116.694 2.92602C117.245 2.92602 117.73 3.03336 118.15 3.24802C118.58 3.46269 118.911 3.76136 119.144 4.14402C119.387 4.51736 119.508 4.95136 119.508 5.44602V10.598H118.458V9.10002L118.612 9.25402C118.482 9.53402 118.276 9.79069 117.996 10.024C117.726 10.248 117.404 10.43 117.03 10.57C116.666 10.7007 116.265 10.766 115.826 10.766ZM124.272 10.766C123.553 10.766 122.923 10.584 122.382 10.22C121.841 9.85602 121.449 9.36136 121.206 8.73602L122.088 8.31602C122.303 8.77336 122.601 9.13736 122.984 9.40802C123.376 9.67869 123.805 9.81402 124.272 9.81402C124.72 9.81402 125.098 9.70669 125.406 9.49202C125.714 9.26802 125.868 8.97869 125.868 8.62402C125.868 8.36269 125.793 8.15736 125.644 8.00802C125.495 7.84936 125.322 7.72802 125.126 7.64402C124.93 7.56002 124.757 7.49936 124.608 7.46202L123.53 7.15402C122.839 6.95802 122.34 6.68269 122.032 6.32802C121.724 5.97336 121.57 5.56269 121.57 5.09602C121.57 4.65736 121.682 4.27469 121.906 3.94802C122.13 3.62136 122.433 3.36936 122.816 3.19202C123.199 3.01469 123.623 2.92602 124.09 2.92602C124.725 2.92602 125.299 3.09402 125.812 3.43002C126.335 3.75669 126.703 4.21402 126.918 4.80202L126.022 5.22202C125.835 4.80202 125.565 4.47536 125.21 4.24202C124.865 3.99936 124.477 3.87802 124.048 3.87802C123.628 3.87802 123.292 3.98536 123.04 4.20002C122.788 4.41469 122.662 4.68536 122.662 5.01202C122.662 5.26402 122.727 5.46469 122.858 5.61402C122.989 5.76336 123.138 5.87536 123.306 5.95002C123.483 6.02469 123.637 6.08069 123.768 6.11802L125.014 6.48202C125.621 6.65936 126.092 6.93469 126.428 7.30802C126.773 7.68136 126.946 8.12002 126.946 8.62402C126.946 9.03469 126.829 9.40336 126.596 9.73002C126.372 10.0567 126.059 10.3134 125.658 10.5C125.257 10.6774 124.795 10.766 124.272 10.766ZM131.661 10.682C130.989 10.682 130.471 10.486 130.107 10.094C129.743 9.70202 129.561 9.14202 129.561 8.41402V4.14402H128.175V3.09402H128.525C128.842 3.09402 129.094 2.99136 129.281 2.78602C129.468 2.57136 129.561 2.30536 129.561 1.98802V1.35802H130.611V3.09402H132.263V4.14402H130.611V8.41402C130.611 8.66602 130.648 8.89002 130.723 9.08602C130.798 9.27269 130.924 9.42202 131.101 9.53402C131.288 9.64602 131.535 9.70202 131.843 9.70202C131.918 9.70202 132.006 9.69736 132.109 9.68802C132.212 9.67869 132.3 9.66936 132.375 9.66002V10.598C132.263 10.626 132.137 10.6447 131.997 10.654C131.857 10.6727 131.745 10.682 131.661 10.682ZM136.598 10.598V3.09402H137.648V4.52202L137.48 4.31202C137.685 3.87336 137.988 3.53269 138.39 3.29002C138.8 3.04736 139.248 2.92602 139.734 2.92602C140.312 2.92602 140.835 3.08936 141.302 3.41602C141.768 3.74269 142.1 4.16736 142.296 4.69002L142.002 4.70402C142.188 4.12536 142.51 3.68669 142.968 3.38802C143.434 3.08002 143.948 2.92602 144.508 2.92602C145.012 2.92602 145.474 3.04736 145.894 3.29002C146.323 3.53269 146.664 3.86869 146.916 4.29802C147.177 4.71802 147.308 5.19402 147.308 5.72602V10.598H146.258V6.13202C146.258 5.67469 146.174 5.28736 146.006 4.97002C145.847 4.65269 145.628 4.41002 145.348 4.24202C145.068 4.06469 144.746 3.97602 144.382 3.97602C144.027 3.97602 143.705 4.06469 143.416 4.24202C143.126 4.41002 142.898 4.65736 142.73 4.98402C142.562 5.30136 142.478 5.68402 142.478 6.13202V10.598H141.428V6.13202C141.428 5.67469 141.344 5.28736 141.176 4.97002C141.017 4.65269 140.798 4.41002 140.518 4.24202C140.238 4.06469 139.916 3.97602 139.552 3.97602C139.188 3.97602 138.861 4.06469 138.572 4.24202C138.292 4.41002 138.068 4.65736 137.9 4.98402C137.732 5.30136 137.648 5.68402 137.648 6.13202V10.598H136.598ZM152.827 10.766C152.117 10.766 151.473 10.598 150.895 10.262C150.316 9.91669 149.854 9.45002 149.509 8.86202C149.173 8.26469 149.005 7.58802 149.005 6.83202C149.005 6.08536 149.173 5.41802 149.509 4.83002C149.845 4.24202 150.297 3.78002 150.867 3.44402C151.445 3.09869 152.099 2.92602 152.827 2.92602C153.555 2.92602 154.203 3.09402 154.773 3.43002C155.351 3.76602 155.804 4.22802 156.131 4.81602C156.467 5.40402 156.635 6.07602 156.635 6.83202C156.635 7.59736 156.462 8.27869 156.117 8.87602C155.771 9.46402 155.309 9.92602 154.731 10.262C154.161 10.598 153.527 10.766 152.827 10.766ZM152.827 9.71602C153.331 9.71602 153.783 9.59002 154.185 9.33802C154.595 9.08602 154.917 8.74069 155.151 8.30202C155.393 7.86336 155.515 7.37336 155.515 6.83202C155.515 6.29069 155.393 5.80536 155.151 5.37602C154.917 4.94669 154.595 4.60602 154.185 4.35402C153.783 4.10202 153.331 3.97602 152.827 3.97602C152.323 3.97602 151.865 4.10202 151.455 4.35402C151.053 4.60602 150.731 4.94669 150.489 5.37602C150.246 5.80536 150.125 6.29069 150.125 6.83202C150.125 7.37336 150.246 7.86336 150.489 8.30202C150.731 8.74069 151.053 9.08602 151.455 9.33802C151.865 9.59002 152.323 9.71602 152.827 9.71602ZM158.486 10.598V3.09402H159.536V4.55002L159.298 4.49402C159.485 4.00869 159.788 3.62602 160.208 3.34602C160.638 3.06602 161.132 2.92602 161.692 2.92602C162.224 2.92602 162.7 3.04736 163.12 3.29002C163.55 3.53269 163.886 3.86869 164.128 4.29802C164.38 4.71802 164.506 5.19402 164.506 5.72602V10.598H163.456V6.13202C163.456 5.67469 163.372 5.28736 163.204 4.97002C163.046 4.65269 162.817 4.41002 162.518 4.24202C162.229 4.06469 161.893 3.97602 161.51 3.97602C161.128 3.97602 160.787 4.06469 160.488 4.24202C160.19 4.41002 159.956 4.65736 159.788 4.98402C159.62 5.30136 159.536 5.68402 159.536 6.13202V10.598H158.486ZM169.382 10.682C168.71 10.682 168.192 10.486 167.828 10.094C167.464 9.70202 167.282 9.14202 167.282 8.41402V4.14402H165.896V3.09402H166.246C166.563 3.09402 166.815 2.99136 167.002 2.78602C167.189 2.57136 167.282 2.30536 167.282 1.98802V1.35802H168.332V3.09402H169.984V4.14402H168.332V8.41402C168.332 8.66602 168.369 8.89002 168.444 9.08602C168.519 9.27269 168.645 9.42202 168.822 9.53402C169.009 9.64602 169.256 9.70202 169.564 9.70202C169.639 9.70202 169.727 9.69736 169.83 9.68802C169.933 9.67869 170.021 9.66936 170.096 9.66002V10.598C169.984 10.626 169.858 10.6447 169.718 10.654C169.578 10.6727 169.466 10.682 169.382 10.682ZM171.94 10.598V2.20537e-05H172.99V4.55002L172.752 4.49402C172.938 4.00869 173.242 3.62602 173.662 3.34602C174.091 3.06602 174.586 2.92602 175.146 2.92602C175.678 2.92602 176.154 3.04736 176.574 3.29002C177.003 3.53269 177.339 3.86869 177.582 4.29802C177.834 4.71802 177.96 5.19402 177.96 5.72602V10.598H176.91V6.13202C176.91 5.67469 176.826 5.28736 176.658 4.97002C176.49 4.65269 176.256 4.41002 175.958 4.24202C175.668 4.06469 175.337 3.97602 174.964 3.97602C174.59 3.97602 174.254 4.06469 173.956 4.24202C173.657 4.41002 173.419 4.65736 173.242 4.98402C173.074 5.30136 172.99 5.68402 172.99 6.13202V10.598H171.94Z" fill="black"/>
</svg>
