<svg width="168" height="19" viewBox="0 0 168 19" fill="none" xmlns="http://www.w3.org/2000/svg">
<path d="M26.0856 15.168C25.339 15.168 24.6483 15.0327 24.0136 14.762C23.379 14.4913 22.8236 14.1133 22.3476 13.628C21.8716 13.1427 21.4983 12.5733 21.2276 11.92C20.9663 11.2667 20.8356 10.5527 20.8356 9.778C20.8356 9.00333 20.9616 8.28933 21.2136 7.636C21.475 6.97333 21.839 6.404 22.3056 5.928C22.7816 5.44267 23.337 5.06933 23.9716 4.808C24.6063 4.53733 25.297 4.402 26.0436 4.402C26.7903 4.402 27.4576 4.528 28.0456 4.78C28.643 5.032 29.147 5.368 29.5576 5.788C29.9683 6.19867 30.2623 6.65133 30.4396 7.146L28.7456 7.958C28.5496 7.41667 28.2183 6.978 27.7516 6.642C27.285 6.306 26.7156 6.138 26.0436 6.138C25.3903 6.138 24.8116 6.292 24.3076 6.6C23.813 6.908 23.4256 7.33267 23.1456 7.874C22.875 8.41533 22.7396 9.05 22.7396 9.778C22.7396 10.506 22.8796 11.1453 23.1596 11.696C23.449 12.2373 23.8456 12.662 24.3496 12.97C24.8536 13.278 25.4323 13.432 26.0856 13.432C26.6176 13.432 27.1076 13.3293 27.5556 13.124C28.0036 12.9093 28.363 12.6107 28.6336 12.228C28.9043 11.836 29.0396 11.374 29.0396 10.842V10.044L29.9076 10.8H26.0436V9.19H30.9436V10.24C30.9436 11.0427 30.8083 11.752 30.5376 12.368C30.267 12.984 29.8983 13.502 29.4316 13.922C28.9743 14.3327 28.4563 14.6453 27.8776 14.86C27.299 15.0653 26.7016 15.168 26.0856 15.168ZM32.4503 15V4.57H35.8523C36.9536 4.57 37.9103 4.794 38.7223 5.242C39.5436 5.68067 40.1783 6.292 40.6263 7.076C41.0743 7.85067 41.2983 8.75133 41.2983 9.778C41.2983 10.7953 41.0743 11.7007 40.6263 12.494C40.1783 13.278 39.5436 13.894 38.7223 14.342C37.9103 14.7807 36.9536 15 35.8523 15H32.4503ZM34.3543 13.32H35.8943C36.6036 13.32 37.2149 13.1753 37.7283 12.886C38.2509 12.5873 38.6569 12.1767 38.9463 11.654C39.2356 11.122 39.3803 10.4967 39.3803 9.778C39.3803 9.05 39.2356 8.42467 38.9463 7.902C38.6569 7.37933 38.2509 6.97333 37.7283 6.684C37.2149 6.39467 36.6036 6.25 35.8943 6.25H34.3543V13.32ZM42.8135 15V4.57H46.7055C47.4149 4.57 48.0402 4.70067 48.5815 4.962C49.1322 5.214 49.5615 5.58733 49.8695 6.082C50.1775 6.56733 50.3315 7.16 50.3315 7.86C50.3315 8.55067 50.1729 9.14333 49.8555 9.638C49.5475 10.1233 49.1229 10.4967 48.5815 10.758C48.0402 11.0193 47.4149 11.15 46.7055 11.15H44.7175V15H42.8135ZM44.7175 9.47H46.7335C47.0789 9.47 47.3775 9.40467 47.6295 9.274C47.8815 9.134 48.0775 8.94267 48.2175 8.7C48.3575 8.45733 48.4275 8.17733 48.4275 7.86C48.4275 7.53333 48.3575 7.25333 48.2175 7.02C48.0775 6.77733 47.8815 6.59067 47.6295 6.46C47.3775 6.32 47.0789 6.25 46.7335 6.25H44.7175V9.47ZM51.8917 15V4.57H55.7697C56.479 4.57 57.1043 4.70067 57.6457 4.962C58.1963 5.214 58.6257 5.58733 58.9337 6.082C59.2417 6.56733 59.3957 7.16 59.3957 7.86C59.3957 8.57867 59.223 9.19 58.8777 9.694C58.5417 10.198 58.0843 10.5713 57.5057 10.814L59.8997 15H57.7437L55.1817 10.422L56.4137 11.15H53.7957V15H51.8917ZM53.7957 9.47H55.7977C56.143 9.47 56.4417 9.40467 56.6937 9.274C56.9457 9.134 57.1417 8.94267 57.2817 8.7C57.4217 8.45733 57.4917 8.17733 57.4917 7.86C57.4917 7.53333 57.4217 7.25333 57.2817 7.02C57.1417 6.77733 56.9457 6.59067 56.6937 6.46C56.4417 6.32 56.143 6.25 55.7977 6.25H53.7957V9.47ZM88.0592 15.168C87.3126 15.168 86.6219 15.0327 85.9872 14.762C85.3619 14.4913 84.8112 14.1133 84.3352 13.628C83.8686 13.1427 83.5046 12.5733 83.2432 11.92C82.9819 11.2667 82.8512 10.5527 82.8512 9.778C82.8512 9.00333 82.9772 8.28933 83.2292 7.636C83.4906 6.97333 83.8546 6.404 84.3212 5.928C84.7972 5.44267 85.3526 5.06933 85.9872 4.808C86.6219 4.53733 87.3126 4.402 88.0592 4.402C88.8059 4.402 89.4732 4.528 90.0612 4.78C90.6586 5.032 91.1626 5.368 91.5732 5.788C91.9839 6.19867 92.2779 6.65133 92.4552 7.146L90.7472 7.944C90.5512 7.42133 90.2199 6.992 89.7532 6.656C89.2866 6.31067 88.7219 6.138 88.0592 6.138C87.4059 6.138 86.8272 6.292 86.3232 6.6C85.8286 6.908 85.4412 7.33267 85.1612 7.874C84.8906 8.41533 84.7552 9.05 84.7552 9.778C84.7552 10.506 84.8906 11.1453 85.1612 11.696C85.4412 12.2373 85.8286 12.662 86.3232 12.97C86.8272 13.278 87.4059 13.432 88.0592 13.432C88.7219 13.432 89.2866 13.264 89.7532 12.928C90.2199 12.5827 90.5512 12.1487 90.7472 11.626L92.4552 12.424C92.2779 12.9187 91.9839 13.376 91.5732 13.796C91.1626 14.2067 90.6586 14.538 90.0612 14.79C89.4732 15.042 88.8059 15.168 88.0592 15.168ZM98.901 15.168C98.1544 15.168 97.4637 15.0327 96.829 14.762C96.2037 14.4913 95.653 14.1133 95.177 13.628C94.7104 13.1427 94.3464 12.5733 94.085 11.92C93.8237 11.2667 93.693 10.5527 93.693 9.778C93.693 9.00333 93.819 8.28933 94.071 7.636C94.3324 6.97333 94.6964 6.404 95.163 5.928C95.639 5.44267 96.1944 5.06933 96.829 4.808C97.4637 4.53733 98.1544 4.402 98.901 4.402C99.6477 4.402 100.315 4.528 100.903 4.78C101.5 5.032 102.004 5.368 102.415 5.788C102.826 6.19867 103.12 6.65133 103.297 7.146L101.589 7.944C101.393 7.42133 101.062 6.992 100.595 6.656C100.128 6.31067 99.5637 6.138 98.901 6.138C98.2477 6.138 97.669 6.292 97.165 6.6C96.6704 6.908 96.283 7.33267 96.003 7.874C95.7324 8.41533 95.597 9.05 95.597 9.778C95.597 10.506 95.7324 11.1453 96.003 11.696C96.283 12.2373 96.6704 12.662 97.165 12.97C97.669 13.278 98.2477 13.432 98.901 13.432C99.5637 13.432 100.128 13.264 100.595 12.928C101.062 12.5827 101.393 12.1487 101.589 11.626L103.297 12.424C103.12 12.9187 102.826 13.376 102.415 13.796C102.004 14.2067 101.5 14.538 100.903 14.79C100.315 15.042 99.6477 15.168 98.901 15.168ZM104.843 15V4.57H108.735C109.444 4.57 110.07 4.70067 110.611 4.962C111.162 5.214 111.591 5.58733 111.899 6.082C112.207 6.56733 112.361 7.16 112.361 7.86C112.361 8.55067 112.202 9.14333 111.885 9.638C111.577 10.1233 111.152 10.4967 110.611 10.758C110.07 11.0193 109.444 11.15 108.735 11.15H106.747V15H104.843ZM106.747 9.47H108.763C109.108 9.47 109.407 9.40467 109.659 9.274C109.911 9.134 110.107 8.94267 110.247 8.7C110.387 8.45733 110.457 8.17733 110.457 7.86C110.457 7.53333 110.387 7.25333 110.247 7.02C110.107 6.77733 109.911 6.59067 109.659 6.46C109.407 6.32 109.108 6.25 108.763 6.25H106.747V9.47ZM112.233 15L115.831 4.57H118.295L121.893 15H119.821L119.079 12.76H115.047L114.291 15H112.233ZM115.593 11.08H118.533L116.797 5.886H117.329L115.593 11.08Z" fill="#0CBBC7"/>
<path d="M61.1755 11.738V10.758H66.0755V11.738H61.1755ZM73.1871 15.168C72.6271 15.168 72.1278 15.0607 71.6891 14.846C71.2504 14.6313 70.9051 14.328 70.6531 13.936C70.4011 13.544 70.2751 13.0867 70.2751 12.564C70.2751 12.116 70.3591 11.7193 70.5271 11.374C70.6951 11.0287 70.9004 10.73 71.1431 10.478C71.3951 10.2167 71.6471 9.99733 71.8991 9.82C72.1604 9.64267 72.3798 9.498 72.5571 9.386L73.2851 8.938C73.5464 8.77933 73.8031 8.602 74.0551 8.406C74.3164 8.20067 74.5311 7.96733 74.6991 7.706C74.8764 7.43533 74.9651 7.13667 74.9651 6.81C74.9651 6.418 74.8344 6.09133 74.5731 5.83C74.3118 5.56867 73.9851 5.438 73.5931 5.438C73.1918 5.438 72.8604 5.56867 72.5991 5.83C72.3471 6.09133 72.2211 6.42267 72.2211 6.824C72.2211 7.08533 72.2818 7.342 72.4031 7.594C72.5338 7.846 72.6924 8.08867 72.8791 8.322C73.0751 8.546 73.2758 8.76533 73.4811 8.98L79.2211 15H77.7231L72.5991 9.708C72.3751 9.47467 72.1464 9.218 71.9131 8.938C71.6891 8.64867 71.4978 8.336 71.3391 8C71.1804 7.65467 71.1011 7.27667 71.1011 6.866C71.1011 6.38067 71.2131 5.956 71.4371 5.592C71.6611 5.21867 71.9598 4.92933 72.3331 4.724C72.7158 4.50933 73.1358 4.402 73.5931 4.402C74.0411 4.402 74.4518 4.50467 74.8251 4.71C75.1984 4.91533 75.4971 5.2 75.7211 5.564C75.9451 5.928 76.0571 6.34333 76.0571 6.81C76.0571 7.30467 75.9404 7.73867 75.7071 8.112C75.4831 8.476 75.2078 8.78867 74.8811 9.05C74.5544 9.31133 74.2511 9.53067 73.9711 9.708L73.2711 10.142C73.0191 10.3007 72.7531 10.492 72.4731 10.716C72.1931 10.9307 71.9551 11.1873 71.7591 11.486C71.5631 11.7753 71.4651 12.1253 71.4651 12.536C71.4651 13.04 71.6284 13.432 71.9551 13.712C72.2818 13.992 72.7018 14.132 73.2151 14.132C73.5511 14.132 73.8498 14.076 74.1111 13.964C74.3724 13.852 74.6058 13.7073 74.8111 13.53C75.0164 13.3433 75.2031 13.138 75.3711 12.914C75.5391 12.6807 75.6978 12.452 75.8471 12.228L77.4571 9.834H78.7311L76.8551 12.69C76.7058 12.9233 76.5238 13.1847 76.3091 13.474C76.0944 13.754 75.8424 14.0247 75.5531 14.286C75.2638 14.538 74.9231 14.748 74.5311 14.916C74.1484 15.084 73.7004 15.168 73.1871 15.168ZM123.082 11.738V10.758H127.982V11.738H123.082ZM130.096 15V7.496H131.146V8.728L131.006 8.546C131.184 8.19133 131.45 7.91133 131.804 7.706C132.168 7.50067 132.607 7.398 133.12 7.398H133.596V8.448H132.938C132.397 8.448 131.963 8.616 131.636 8.952C131.31 9.288 131.146 9.764 131.146 10.38V15H130.096ZM138.243 15.168C137.543 15.168 136.908 15 136.339 14.664C135.779 14.3187 135.336 13.8473 135.009 13.25C134.682 12.6527 134.519 11.976 134.519 11.22C134.519 10.464 134.678 9.79667 134.995 9.218C135.312 8.63 135.742 8.168 136.283 7.832C136.834 7.496 137.45 7.328 138.131 7.328C138.672 7.328 139.153 7.43067 139.573 7.636C140.002 7.832 140.366 8.10267 140.665 8.448C140.964 8.784 141.192 9.16667 141.351 9.596C141.51 10.016 141.589 10.45 141.589 10.898C141.589 10.9913 141.584 11.0987 141.575 11.22C141.566 11.332 141.552 11.4487 141.533 11.57H135.191V10.59H140.931L140.427 11.01C140.511 10.4967 140.45 10.0393 140.245 9.638C140.049 9.22733 139.764 8.90533 139.391 8.672C139.018 8.42933 138.598 8.308 138.131 8.308C137.664 8.308 137.23 8.42933 136.829 8.672C136.437 8.91467 136.129 9.25533 135.905 9.694C135.681 10.1233 135.592 10.6367 135.639 11.234C135.592 11.8313 135.686 12.354 135.919 12.802C136.162 13.2407 136.488 13.5813 136.899 13.824C137.319 14.0667 137.767 14.188 138.243 14.188C138.794 14.188 139.256 14.0573 139.629 13.796C140.002 13.5347 140.306 13.208 140.539 12.816L141.435 13.292C141.286 13.628 141.057 13.9407 140.749 14.23C140.441 14.51 140.072 14.7387 139.643 14.916C139.223 15.084 138.756 15.168 138.243 15.168ZM145.473 15.168C144.997 15.168 144.573 15.0793 144.199 14.902C143.826 14.7153 143.532 14.4633 143.317 14.146C143.103 13.8287 142.995 13.4647 142.995 13.054C142.995 12.662 143.079 12.3073 143.247 11.99C143.415 11.6633 143.677 11.388 144.031 11.164C144.386 10.94 144.839 10.7813 145.389 10.688L148.329 10.198V11.15L145.641 11.598C145.1 11.6913 144.708 11.864 144.465 12.116C144.232 12.368 144.115 12.6667 144.115 13.012C144.115 13.348 144.246 13.6327 144.507 13.866C144.778 14.0993 145.123 14.216 145.543 14.216C146.057 14.216 146.505 14.1087 146.887 13.894C147.27 13.67 147.569 13.3713 147.783 12.998C147.998 12.6247 148.105 12.2093 148.105 11.752V9.848C148.105 9.4 147.942 9.036 147.615 8.756C147.289 8.476 146.864 8.336 146.341 8.336C145.884 8.336 145.483 8.45267 145.137 8.686C144.792 8.91 144.535 9.204 144.367 9.568L143.415 9.05C143.555 8.73267 143.775 8.44333 144.073 8.182C144.381 7.92067 144.731 7.71533 145.123 7.566C145.515 7.40733 145.921 7.328 146.341 7.328C146.892 7.328 147.377 7.43533 147.797 7.65C148.227 7.86467 148.558 8.16333 148.791 8.546C149.034 8.91933 149.155 9.35333 149.155 9.848V15H148.105V13.502L148.259 13.656C148.129 13.936 147.923 14.1927 147.643 14.426C147.373 14.65 147.051 14.832 146.677 14.972C146.313 15.1027 145.912 15.168 145.473 15.168ZM154.703 15.168C154.003 15.168 153.373 15 152.813 14.664C152.253 14.3187 151.81 13.852 151.483 13.264C151.166 12.6667 151.007 11.9947 151.007 11.248C151.007 10.492 151.166 9.82 151.483 9.232C151.81 8.644 152.249 8.182 152.799 7.846C153.359 7.50067 153.994 7.328 154.703 7.328C155.347 7.328 155.921 7.468 156.425 7.748C156.929 8.028 157.326 8.406 157.615 8.882L157.447 9.176V4.402H158.497V15H157.447V13.32L157.615 13.474C157.354 14.0153 156.962 14.4353 156.439 14.734C155.926 15.0233 155.347 15.168 154.703 15.168ZM154.759 14.118C155.263 14.118 155.716 13.992 156.117 13.74C156.528 13.488 156.85 13.1473 157.083 12.718C157.326 12.2793 157.447 11.7893 157.447 11.248C157.447 10.7067 157.326 10.2213 157.083 9.792C156.85 9.35333 156.528 9.008 156.117 8.756C155.716 8.504 155.263 8.378 154.759 8.378C154.265 8.378 153.817 8.504 153.415 8.756C153.014 9.008 152.697 9.34867 152.463 9.778C152.239 10.2073 152.127 10.6973 152.127 11.248C152.127 11.7893 152.239 12.2793 152.463 12.718C152.697 13.1473 153.009 13.488 153.401 13.74C153.803 13.992 154.255 14.118 154.759 14.118ZM160.807 18.08C160.658 18.08 160.504 18.066 160.345 18.038C160.196 18.0193 160.046 17.982 159.897 17.926V16.946C159.99 16.9553 160.107 16.9693 160.247 16.988C160.396 17.016 160.546 17.03 160.695 17.03C161.152 17.03 161.502 16.932 161.745 16.736C161.988 16.5493 162.226 16.1853 162.459 15.644L162.935 14.524L162.907 15.448L159.729 7.496H160.863L163.467 14.062H163.173L165.763 7.496H166.925L163.495 15.952C163.346 16.316 163.154 16.6613 162.921 16.988C162.697 17.3147 162.412 17.576 162.067 17.772C161.722 17.9773 161.302 18.08 160.807 18.08Z" fill="black"/>
<path fill-rule="evenodd" clip-rule="evenodd" d="M8.98684 6L8.43882 6.59616C6.92794 8.22689 5.31667 10.0789 3.80681 11.7332L1.72128 9.8822L1.12 9.34955L0.135624 10.6402L0.731783 11.1729L3.37045 13.5145L3.91847 14L4.41322 13.4622C6.08492 11.6574 7.89593 9.54622 9.53485 7.77618L10.0829 7.18003L8.98684 6Z" fill="#0CBBC7" stroke="#016359" stroke-width="0.2"/>
</svg>
