<svg width="159" height="19" viewBox="0 0 159 19" fill="none" xmlns="http://www.w3.org/2000/svg">
<path d="M21.1436 15V4.57H23.0476V13.32H27.5136V15H21.1436ZM32.2032 15.168C31.4192 15.168 30.7332 14.9907 30.1452 14.636C29.5572 14.2813 29.0998 13.8007 28.7732 13.194C28.4465 12.5873 28.2832 11.9153 28.2832 11.178C28.2832 10.4127 28.4465 9.736 28.7732 9.148C29.1092 8.55067 29.5618 8.07933 30.1312 7.734C30.7098 7.38867 31.3538 7.216 32.0632 7.216C32.6605 7.216 33.1832 7.314 33.6312 7.51C34.0885 7.706 34.4758 7.97667 34.7932 8.322C35.1105 8.66733 35.3532 9.064 35.5212 9.512C35.6892 9.95067 35.7732 10.4267 35.7732 10.94C35.7732 11.0707 35.7638 11.206 35.7452 11.346C35.7358 11.486 35.7125 11.6073 35.6752 11.71H29.7952V10.31H34.6392L33.7712 10.968C33.8552 10.5387 33.8318 10.156 33.7012 9.82C33.5798 9.484 33.3745 9.218 33.0852 9.022C32.8052 8.826 32.4645 8.728 32.0632 8.728C31.6805 8.728 31.3398 8.826 31.0412 9.022C30.7425 9.20867 30.5138 9.48867 30.3552 9.862C30.2058 10.226 30.1498 10.6693 30.1872 11.192C30.1498 11.6587 30.2105 12.074 30.3692 12.438C30.5372 12.7927 30.7798 13.068 31.0972 13.264C31.4238 13.46 31.7972 13.558 32.2172 13.558C32.6372 13.558 32.9918 13.4693 33.2812 13.292C33.5798 13.1147 33.8132 12.8767 33.9812 12.578L35.4652 13.306C35.3158 13.67 35.0825 13.992 34.7652 14.272C34.4478 14.552 34.0698 14.7713 33.6312 14.93C33.2018 15.0887 32.7258 15.168 32.2032 15.168ZM39.4461 15.168C38.9141 15.168 38.4521 15.0793 38.0601 14.902C37.6681 14.7247 37.3648 14.4727 37.1501 14.146C36.9354 13.81 36.8281 13.4227 36.8281 12.984C36.8281 12.564 36.9214 12.1907 37.1081 11.864C37.2948 11.528 37.5841 11.248 37.9761 11.024C38.3681 10.8 38.8628 10.6413 39.4601 10.548L41.9521 10.142V11.542L39.8101 11.906C39.4461 11.9713 39.1754 12.088 38.9981 12.256C38.8208 12.424 38.7321 12.6433 38.7321 12.914C38.7321 13.1753 38.8301 13.3853 39.0261 13.544C39.2314 13.6933 39.4834 13.768 39.7821 13.768C40.1648 13.768 40.5008 13.6887 40.7901 13.53C41.0888 13.362 41.3174 13.1333 41.4761 12.844C41.6441 12.5547 41.7281 12.2373 41.7281 11.892V9.932C41.7281 9.60533 41.5974 9.33467 41.3361 9.12C41.0841 8.896 40.7481 8.784 40.3281 8.784C39.9361 8.784 39.5861 8.89133 39.2781 9.106C38.9794 9.31133 38.7601 9.58667 38.6201 9.932L37.1221 9.204C37.2714 8.80267 37.5048 8.45733 37.8221 8.168C38.1488 7.86933 38.5314 7.636 38.9701 7.468C39.4088 7.3 39.8848 7.216 40.3981 7.216C41.0234 7.216 41.5741 7.33267 42.0501 7.566C42.5261 7.79 42.8948 8.10733 43.1561 8.518C43.4268 8.91933 43.5621 9.39067 43.5621 9.932V15H41.8261V13.698L42.2181 13.67C42.0221 13.9967 41.7888 14.272 41.5181 14.496C41.2474 14.7107 40.9394 14.8787 40.5941 15C40.2488 15.112 39.8661 15.168 39.4461 15.168ZM48.7992 15.168C48.0619 15.168 47.4039 14.9953 46.8252 14.65C46.2465 14.2953 45.7892 13.8147 45.4532 13.208C45.1172 12.6013 44.9492 11.9293 44.9492 11.192C44.9492 10.4453 45.1172 9.77333 45.4532 9.176C45.7892 8.57867 46.2465 8.10267 46.8252 7.748C47.4132 7.39333 48.0665 7.216 48.7852 7.216C49.3639 7.216 49.8772 7.33267 50.3252 7.566C50.7825 7.79 51.1419 8.10733 51.4032 8.518L51.1232 8.896V4.402H52.9572V15H51.2212V13.53L51.4172 13.894C51.1559 14.3047 50.7919 14.622 50.3252 14.846C49.8585 15.0607 49.3499 15.168 48.7992 15.168ZM48.9952 13.488C49.4152 13.488 49.7839 13.39 50.1012 13.194C50.4185 12.998 50.6659 12.7273 50.8432 12.382C51.0299 12.0367 51.1232 11.64 51.1232 11.192C51.1232 10.7533 51.0299 10.3613 50.8432 10.016C50.6659 9.66133 50.4185 9.386 50.1012 9.19C49.7839 8.994 49.4152 8.896 48.9952 8.896C48.5845 8.896 48.2159 8.99867 47.8892 9.204C47.5625 9.4 47.3059 9.67067 47.1192 10.016C46.9419 10.352 46.8532 10.744 46.8532 11.192C46.8532 11.64 46.9419 12.0367 47.1192 12.382C47.3059 12.7273 47.5625 12.998 47.8892 13.194C48.2159 13.39 48.5845 13.488 48.9952 13.488ZM58.2754 15.168C57.4914 15.168 56.8054 14.9907 56.2174 14.636C55.6294 14.2813 55.1721 13.8007 54.8454 13.194C54.5188 12.5873 54.3554 11.9153 54.3554 11.178C54.3554 10.4127 54.5188 9.736 54.8454 9.148C55.1814 8.55067 55.6341 8.07933 56.2034 7.734C56.7821 7.38867 57.4261 7.216 58.1354 7.216C58.7328 7.216 59.2554 7.314 59.7034 7.51C60.1608 7.706 60.5481 7.97667 60.8654 8.322C61.1828 8.66733 61.4254 9.064 61.5934 9.512C61.7614 9.95067 61.8454 10.4267 61.8454 10.94C61.8454 11.0707 61.8361 11.206 61.8174 11.346C61.8081 11.486 61.7848 11.6073 61.7474 11.71H55.8674V10.31H60.7114L59.8434 10.968C59.9274 10.5387 59.9041 10.156 59.7734 9.82C59.6521 9.484 59.4468 9.218 59.1574 9.022C58.8774 8.826 58.5368 8.728 58.1354 8.728C57.7528 8.728 57.4121 8.826 57.1134 9.022C56.8148 9.20867 56.5861 9.48867 56.4274 9.862C56.2781 10.226 56.2221 10.6693 56.2594 11.192C56.2221 11.6587 56.2828 12.074 56.4414 12.438C56.6094 12.7927 56.8521 13.068 57.1694 13.264C57.4961 13.46 57.8694 13.558 58.2894 13.558C58.7094 13.558 59.0641 13.4693 59.3534 13.292C59.6521 13.1147 59.8854 12.8767 60.0534 12.578L61.5374 13.306C61.3881 13.67 61.1548 13.992 60.8374 14.272C60.5201 14.552 60.1421 14.7713 59.7034 14.93C59.2741 15.0887 58.7981 15.168 58.2754 15.168ZM63.2357 15V7.384H64.9577V9.078L64.8177 8.826C64.995 8.25667 65.2704 7.86 65.6437 7.636C66.0264 7.412 66.4837 7.3 67.0157 7.3H67.4637V8.924H66.8057C66.283 8.924 65.863 9.08733 65.5457 9.414C65.2284 9.73133 65.0697 10.1793 65.0697 10.758V15H63.2357ZM74.394 18.052C73.5167 18.052 72.7094 17.9073 71.972 17.618C71.2347 17.3287 70.5907 16.918 70.04 16.386C69.4894 15.854 69.0647 15.224 68.766 14.496C68.4674 13.7587 68.318 12.9467 68.318 12.06C68.318 11.1827 68.4674 10.38 68.766 9.652C69.0647 8.91467 69.4894 8.28467 70.04 7.762C70.5907 7.23 71.2347 6.81933 71.972 6.53C72.7094 6.23133 73.512 6.082 74.38 6.082C75.2574 6.082 76.0554 6.23133 76.774 6.53C77.4927 6.82867 78.1087 7.244 78.622 7.776C79.1447 8.308 79.546 8.938 79.826 9.666C80.106 10.394 80.246 11.1873 80.246 12.046C80.246 12.6527 80.1387 13.18 79.924 13.628C79.7187 14.0667 79.4294 14.4073 79.056 14.65C78.692 14.8833 78.2627 15 77.768 15C77.4507 15 77.1334 14.9393 76.816 14.818C76.508 14.6873 76.2467 14.4913 76.032 14.23C75.8267 13.9687 75.7147 13.6233 75.696 13.194L76.032 13.894C75.9387 14.1273 75.7847 14.328 75.57 14.496C75.3554 14.6547 75.1034 14.7807 74.814 14.874C74.534 14.958 74.24 15 73.932 15C73.3907 15 72.896 14.874 72.448 14.622C72.0094 14.3607 71.6547 14.006 71.384 13.558C71.1227 13.1007 70.992 12.5873 70.992 12.018C70.992 11.458 71.1227 10.9447 71.384 10.478C71.6454 10.0113 72 9.638 72.448 9.358C72.9054 9.078 73.4187 8.938 73.988 8.938C74.4454 8.938 74.856 9.02667 75.22 9.204C75.584 9.372 75.8267 9.60067 75.948 9.89L75.808 10.366V9.078H77.082V12.62C77.082 12.956 77.1474 13.2127 77.278 13.39C77.4087 13.5673 77.586 13.656 77.81 13.656C78.118 13.656 78.3467 13.53 78.496 13.278C78.6454 13.0167 78.72 12.5873 78.72 11.99C78.72 11.346 78.622 10.7533 78.426 10.212C78.2394 9.66133 77.964 9.18533 77.6 8.784C77.236 8.37333 76.7834 8.056 76.242 7.832C75.71 7.59867 75.094 7.482 74.394 7.482C73.7127 7.482 73.092 7.59867 72.532 7.832C71.9814 8.056 71.5007 8.37333 71.09 8.784C70.6887 9.19467 70.376 9.67533 70.152 10.226C69.9374 10.7767 69.83 11.3833 69.83 12.046C69.83 12.718 69.942 13.3387 70.166 13.908C70.3994 14.468 70.7214 14.9533 71.132 15.364C71.5427 15.7747 72.0234 16.092 72.574 16.316C73.134 16.54 73.7407 16.652 74.394 16.652C74.8327 16.652 75.2527 16.596 75.654 16.484C76.0647 16.3813 76.438 16.2227 76.774 16.008L77.418 17.24C76.5407 17.7813 75.5327 18.052 74.394 18.052ZM74.086 13.656C74.4034 13.656 74.6834 13.5813 74.926 13.432C75.1687 13.2827 75.3554 13.082 75.486 12.83C75.626 12.5687 75.696 12.284 75.696 11.976C75.696 11.5 75.5467 11.1033 75.248 10.786C74.9494 10.4687 74.5667 10.3053 74.1 10.296C73.792 10.296 73.512 10.366 73.26 10.506C73.008 10.646 72.8074 10.842 72.658 11.094C72.518 11.346 72.448 11.6353 72.448 11.962C72.448 12.2793 72.518 12.5687 72.658 12.83C72.8074 13.082 73.0034 13.2827 73.246 13.432C73.498 13.5813 73.778 13.656 74.086 13.656ZM86.5427 15.168C85.796 15.168 85.1053 15.0327 84.4707 14.762C83.836 14.4913 83.2807 14.1133 82.8047 13.628C82.3287 13.1427 81.9553 12.5733 81.6847 11.92C81.4233 11.2667 81.2927 10.5527 81.2927 9.778C81.2927 9.00333 81.4187 8.28933 81.6707 7.636C81.932 6.97333 82.296 6.404 82.7627 5.928C83.2387 5.44267 83.794 5.06933 84.4287 4.808C85.0633 4.53733 85.754 4.402 86.5007 4.402C87.2473 4.402 87.9147 4.528 88.5027 4.78C89.1 5.032 89.604 5.368 90.0147 5.788C90.4253 6.19867 90.7193 6.65133 90.8967 7.146L89.2027 7.958C89.0067 7.41667 88.6753 6.978 88.2087 6.642C87.742 6.306 87.1727 6.138 86.5007 6.138C85.8473 6.138 85.2687 6.292 84.7647 6.6C84.27 6.908 83.8827 7.33267 83.6027 7.874C83.332 8.41533 83.1967 9.05 83.1967 9.778C83.1967 10.506 83.3367 11.1453 83.6167 11.696C83.906 12.2373 84.3027 12.662 84.8067 12.97C85.3107 13.278 85.8893 13.432 86.5427 13.432C87.0747 13.432 87.5647 13.3293 88.0127 13.124C88.4607 12.9093 88.82 12.6107 89.0907 12.228C89.3613 11.836 89.4967 11.374 89.4967 10.842V10.044L90.3647 10.8H86.5007V9.19H91.4007V10.24C91.4007 11.0427 91.2653 11.752 90.9947 12.368C90.724 12.984 90.3553 13.502 89.8887 13.922C89.4313 14.3327 88.9133 14.6453 88.3347 14.86C87.756 15.0653 87.1587 15.168 86.5427 15.168ZM92.5433 15V13.558L95.3713 10.604C95.9313 10.016 96.3606 9.54933 96.6593 9.204C96.9673 8.84933 97.182 8.546 97.3033 8.294C97.4246 8.042 97.4853 7.78533 97.4853 7.524C97.4853 7.08533 97.3453 6.74 97.0653 6.488C96.7946 6.236 96.4446 6.11 96.0153 6.11C95.5673 6.11 95.18 6.24067 94.8533 6.502C94.5266 6.754 94.2886 7.12733 94.1393 7.622L92.4733 7.104C92.5853 6.55333 92.814 6.07733 93.1593 5.676C93.5046 5.26533 93.9246 4.95267 94.4193 4.738C94.9233 4.514 95.4553 4.402 96.0153 4.402C96.6873 4.402 97.2753 4.52333 97.7793 4.766C98.2926 5.00867 98.6893 5.34933 98.9693 5.788C99.2586 6.22667 99.4033 6.74 99.4033 7.328C99.4033 7.70133 99.3333 8.07 99.1933 8.434C99.0533 8.798 98.8433 9.17133 98.5633 9.554C98.2833 9.92733 97.9193 10.3473 97.4713 10.814L95.0213 13.39H99.5433V15H92.5433Z" fill="#0CBBC7"/>
<path d="M107.378 15.168C106.715 15.168 106.113 15.042 105.572 14.79C105.03 14.538 104.573 14.202 104.2 13.782C103.826 13.3527 103.56 12.8813 103.402 12.368L104.41 11.99C104.652 12.6993 105.03 13.2407 105.544 13.614C106.057 13.978 106.668 14.16 107.378 14.16C107.826 14.16 108.218 14.09 108.554 13.95C108.899 13.8007 109.165 13.5953 109.352 13.334C109.538 13.0727 109.632 12.7693 109.632 12.424C109.632 11.9107 109.492 11.514 109.212 11.234C108.932 10.954 108.53 10.7393 108.008 10.59L106.132 10.03C105.394 9.81533 104.825 9.456 104.424 8.952C104.032 8.448 103.836 7.874 103.836 7.23C103.836 6.67933 103.971 6.194 104.242 5.774C104.512 5.34467 104.881 5.00867 105.348 4.766C105.824 4.52333 106.36 4.402 106.958 4.402C107.583 4.402 108.143 4.51867 108.638 4.752C109.142 4.976 109.566 5.27467 109.912 5.648C110.257 6.02133 110.504 6.43667 110.654 6.894L109.674 7.286C109.45 6.67 109.1 6.20333 108.624 5.886C108.157 5.56867 107.606 5.41 106.972 5.41C106.57 5.41 106.216 5.48 105.908 5.62C105.609 5.76 105.376 5.96067 105.208 6.222C105.04 6.48333 104.956 6.79133 104.956 7.146C104.956 7.57533 105.091 7.96267 105.362 8.308C105.632 8.644 106.048 8.896 106.608 9.064L108.26 9.554C109.081 9.79667 109.702 10.1467 110.122 10.604C110.542 11.0613 110.752 11.6353 110.752 12.326C110.752 12.886 110.607 13.3807 110.318 13.81C110.038 14.23 109.641 14.5613 109.128 14.804C108.624 15.0467 108.04 15.168 107.378 15.168ZM115.42 15.168C114.898 15.168 114.422 15.0467 113.992 14.804C113.563 14.552 113.222 14.2067 112.97 13.768C112.728 13.32 112.606 12.8067 112.606 12.228V7.496H113.656V12.102C113.656 12.5033 113.736 12.858 113.894 13.166C114.062 13.4647 114.291 13.698 114.58 13.866C114.879 14.034 115.22 14.118 115.602 14.118C115.985 14.118 116.326 14.034 116.624 13.866C116.923 13.6887 117.156 13.4413 117.324 13.124C117.492 12.7973 117.576 12.41 117.576 11.962V7.496H118.626V15H117.576V13.544L117.814 13.6C117.637 14.0853 117.334 14.468 116.904 14.748C116.475 15.028 115.98 15.168 115.42 15.168ZM120.786 15V7.496H121.836V8.924L121.668 8.714C121.873 8.27533 122.177 7.93467 122.578 7.692C122.989 7.44933 123.437 7.328 123.922 7.328C124.501 7.328 125.023 7.49133 125.49 7.818C125.957 8.14467 126.288 8.56933 126.484 9.092L126.19 9.106C126.377 8.52733 126.699 8.08867 127.156 7.79C127.623 7.482 128.136 7.328 128.696 7.328C129.2 7.328 129.662 7.44933 130.082 7.692C130.511 7.93467 130.852 8.27067 131.104 8.7C131.365 9.12 131.496 9.596 131.496 10.128V15H130.446V10.534C130.446 10.0767 130.362 9.68933 130.194 9.372C130.035 9.05467 129.816 8.812 129.536 8.644C129.256 8.46667 128.934 8.378 128.57 8.378C128.215 8.378 127.893 8.46667 127.604 8.644C127.315 8.812 127.086 9.05933 126.918 9.386C126.75 9.70333 126.666 10.086 126.666 10.534V15H125.616V10.534C125.616 10.0767 125.532 9.68933 125.364 9.372C125.205 9.05467 124.986 8.812 124.706 8.644C124.426 8.46667 124.104 8.378 123.74 8.378C123.376 8.378 123.049 8.46667 122.76 8.644C122.48 8.812 122.256 9.05933 122.088 9.386C121.92 9.70333 121.836 10.086 121.836 10.534V15H120.786ZM133.501 15V7.496H134.551V8.924L134.383 8.714C134.588 8.27533 134.891 7.93467 135.293 7.692C135.703 7.44933 136.151 7.328 136.637 7.328C137.215 7.328 137.738 7.49133 138.205 7.818C138.671 8.14467 139.003 8.56933 139.199 9.092L138.905 9.106C139.091 8.52733 139.413 8.08867 139.871 7.79C140.337 7.482 140.851 7.328 141.411 7.328C141.915 7.328 142.377 7.44933 142.797 7.692C143.226 7.93467 143.567 8.27067 143.819 8.7C144.08 9.12 144.211 9.596 144.211 10.128V15H143.161V10.534C143.161 10.0767 143.077 9.68933 142.909 9.372C142.75 9.05467 142.531 8.812 142.251 8.644C141.971 8.46667 141.649 8.378 141.285 8.378C140.93 8.378 140.608 8.46667 140.319 8.644C140.029 8.812 139.801 9.05933 139.633 9.386C139.465 9.70333 139.381 10.086 139.381 10.534V15H138.331V10.534C138.331 10.0767 138.247 9.68933 138.079 9.372C137.92 9.05467 137.701 8.812 137.421 8.644C137.141 8.46667 136.819 8.378 136.455 8.378C136.091 8.378 135.764 8.46667 135.475 8.644C135.195 8.812 134.971 9.05933 134.803 9.386C134.635 9.70333 134.551 10.086 134.551 10.534V15H133.501ZM149.632 15.168C148.932 15.168 148.297 15 147.728 14.664C147.168 14.3187 146.724 13.8473 146.398 13.25C146.071 12.6527 145.908 11.976 145.908 11.22C145.908 10.464 146.066 9.79667 146.384 9.218C146.701 8.63 147.13 8.168 147.672 7.832C148.222 7.496 148.838 7.328 149.52 7.328C150.061 7.328 150.542 7.43067 150.962 7.636C151.391 7.832 151.755 8.10267 152.054 8.448C152.352 8.784 152.581 9.16667 152.74 9.596C152.898 10.016 152.978 10.45 152.978 10.898C152.978 10.9913 152.973 11.0987 152.964 11.22C152.954 11.332 152.94 11.4487 152.922 11.57H146.58V10.59H152.32L151.816 11.01C151.9 10.4967 151.839 10.0393 151.634 9.638C151.438 9.22733 151.153 8.90533 150.78 8.672C150.406 8.42933 149.986 8.308 149.52 8.308C149.053 8.308 148.619 8.42933 148.218 8.672C147.826 8.91467 147.518 9.25533 147.294 9.694C147.07 10.1233 146.981 10.6367 147.028 11.234C146.981 11.8313 147.074 12.354 147.308 12.802C147.55 13.2407 147.877 13.5813 148.288 13.824C148.708 14.0667 149.156 14.188 149.632 14.188C150.182 14.188 150.644 14.0573 151.018 13.796C151.391 13.5347 151.694 13.208 151.928 12.816L152.824 13.292C152.674 13.628 152.446 13.9407 152.138 14.23C151.83 14.51 151.461 14.7387 151.032 14.916C150.612 15.084 150.145 15.168 149.632 15.168ZM154.829 15V7.496H155.879V8.728L155.739 8.546C155.916 8.19133 156.182 7.91133 156.537 7.706C156.901 7.50067 157.34 7.398 157.853 7.398H158.329V8.448H157.671C157.13 8.448 156.696 8.616 156.369 8.952C156.042 9.288 155.879 9.764 155.879 10.38V15H154.829Z" fill="black"/>
<path fill-rule="evenodd" clip-rule="evenodd" d="M8.98684 7L8.43882 7.59616C6.92794 9.22689 5.31667 11.0789 3.80681 12.7332L1.72128 10.8822L1.12 10.3496L0.13562 11.6402L0.731779 12.1729L3.37045 14.5145L3.91846 15L4.41321 14.4622C6.08492 12.6574 7.89593 10.5462 9.53485 8.77618L10.0829 8.18003L8.98684 7Z" fill="#0CBBC7" stroke="#016359" stroke-width="0.2"/>
</svg>
